<?xml version="1.0" encoding="UTF-8"?>
<svg width="146px" height="71px" viewBox="0 0 146 71" version="1.1" xmlns="http://www.w3.org/2000/svg" xmlns:xlink="http://www.w3.org/1999/xlink">
    <!-- Generator: Sketch 51.1 (57501) - http://www.bohemiancoding.com/sketch -->
    <title>Logo</title>
    <desc>Created with Sketch.</desc>
    <defs></defs>
    <g id="Symbols" stroke="none" stroke-width="1" fill="none" fill-rule="evenodd">
        <g id="Header" transform="translate(-32.000000, -15.000000)">
            <g id="Logo">
                <g transform="translate(32.000000, 15.000000)">
                    <path d="M14.6,31.56 L14.6,38.08 C14.6,39.16 13.88,39.68 12.8,39.68 C11.68,39.68 11,39.16 11,38.08 L11,9.6 C11,8.56 11.72,8.04 12.84,8.04 C13.88,8.04 14.6,8.48 14.6,9.52 L14.6,27.28 L24.36,17.56 C24.72,17.2 25.16,17.04 25.56,17.04 C26.08,17.04 26.56,17.24 26.88,17.64 C27.24,18.04 27.48,18.52 27.48,18.96 C27.48,19.36 27.32,19.72 26.96,20.08 L20.2,26.4 L28.16,37 C28.36,37.28 28.44,37.56 28.44,37.88 C28.44,38.48 28.04,39.08 27.52,39.4 C27.2,39.6 26.84,39.68 26.44,39.68 C25.92,39.68 25.4,39.48 25.08,39.04 L17.64,28.64 L14.6,31.56 Z M49,29.04 L34.92,29.04 C35,33.96 37.44,37.04 41.76,37.04 C44.64,37.04 46.24,35.6 47.2,33.48 C47.56,32.76 48.08,32.48 48.64,32.48 C48.92,32.48 49.2,32.56 49.48,32.64 C50.16,32.84 50.72,33.32 50.72,34.04 C50.72,34.28 50.68,34.52 50.52,34.76 C49.24,37.4 46.92,40.04 41.72,40.04 C35.16,40.04 31.36,35.4 31.36,28.48 C31.36,21.56 34.96,16.72 41.48,16.72 C47.32,16.72 50.6,21.28 51,26.52 L51,26.84 C51,28.28 50.24,29.04 49,29.04 Z M35.04,26.12 L46.76,26.12 C47.2,26.12 47.36,25.96 47.36,25.6 L47.36,25.4 C46.88,22.56 45.16,19.64 41.48,19.64 C37.64,19.64 35.56,22.2 35.04,26.12 Z M55.32,38.08 L55.32,9.64 C55.32,8.56 56.04,8.04 57.16,8.04 C58.24,8.04 58.96,8.56 58.96,9.64 L58.96,38.08 C58.96,39.16 58.24,39.68 57.16,39.68 C56.04,39.68 55.32,39.16 55.32,38.08 Z M64.68,38.08 L64.68,18.6 C64.68,17.56 65.36,17.04 66.48,17.04 C67.56,17.04 68.32,17.56 68.32,18.6 L68.32,38.08 C68.32,39.16 67.56,39.68 66.48,39.68 C65.36,39.68 64.68,39.16 64.68,38.08 Z M66.52,8 C68,8 69.2,9.16 69.2,10.68 C69.2,12.24 68,13.4 66.52,13.4 C65,13.4 63.8,12.24 63.8,10.68 C63.8,9.16 65,8 66.52,8 Z M103.56,24.48 L103.56,38.08 C103.56,39.16 102.76,39.68 101.72,39.68 C100.6,39.68 99.92,39.16 99.92,38.08 L99.92,25.28 C99.92,21.88 98.96,19.96 96.08,19.96 C93.96,19.96 92.56,21.24 91.6,22.68 C91,23.52 90.52,25.08 90.52,26.28 L90.52,38.08 C90.52,39.16 89.76,39.68 88.72,39.68 C87.6,39.68 86.92,39.16 86.92,38.08 L86.92,25.28 C86.92,21.88 85.92,19.96 83.08,19.96 C80.96,19.96 79.68,21.2 78.72,22.64 C78,23.72 77.64,25.16 77.64,26.48 L77.64,38.08 C77.64,39.16 76.92,39.68 75.88,39.68 C74.76,39.68 74.04,39.16 74.04,38.08 L74.04,18.6 C74.04,17.56 74.8,17.04 75.92,17.04 C76.92,17.04 77.64,17.56 77.64,18.6 L77.64,19.44 C77.64,19.96 77.48,20.76 77.36,21.36 C78.36,19 80.04,16.76 83.96,16.76 C87.48,16.76 89.4,18.36 89.92,21.12 C91.08,19.04 92.52,16.76 96.96,16.76 C101.68,16.76 103.56,19.6 103.56,24.48 Z M125.72,29.04 L111.64,29.04 C111.72,33.96 114.16,37.04 118.48,37.04 C121.36,37.04 122.96,35.6 123.92,33.48 C124.28,32.76 124.8,32.48 125.36,32.48 C125.64,32.48 125.92,32.56 126.2,32.64 C126.88,32.84 127.44,33.32 127.44,34.04 C127.44,34.28 127.4,34.52 127.24,34.76 C125.96,37.4 123.64,40.04 118.44,40.04 C111.88,40.04 108.08,35.4 108.08,28.48 C108.08,21.56 111.68,16.72 118.2,16.72 C124.04,16.72 127.32,21.28 127.72,26.52 L127.72,26.84 C127.72,28.28 126.96,29.04 125.72,29.04 Z M111.76,26.12 L123.48,26.12 C123.92,26.12 124.08,25.96 124.08,25.6 L124.08,25.4 C123.6,22.56 121.88,19.64 118.2,19.64 C114.36,19.64 112.28,22.2 111.76,26.12 Z" id="kelime" fill="#FFFFFF"></path>
                    <path d="M2.5,68.5 L129,68.5 C137.008129,68.5 143.5,62.0081289 143.5,54 L143.5,35.5 C143.5,17.2746033 128.725397,2.5 110.5,2.5 L17,2.5 C8.99187113,2.5 2.5,8.99187113 2.5,17 L2.5,68.5 Z" id="Rectangle-2" stroke="#FFFFFF" stroke-width="5" fill-rule="nonzero"></path>
                    <path d="M17.872,48.184 C17.8906668,48.2773338 17.8836668,48.3799994 17.851,48.492 C17.8183332,48.6040006 17.7880001,48.7113328 17.76,48.814 C17.76,48.8326668 17.7460001,48.9539989 17.718,49.178 C17.7086666,49.3180007 17.6690003,49.4276663 17.599,49.507 C17.5289996,49.5863337 17.3866677,49.626 17.172,49.626 C16.9666656,49.626 16.7800008,49.5816671 16.612,49.493 C16.4439992,49.4043329 16.3553334,49.2806675 16.346,49.122 C16.346,49.047333 16.3646665,48.9610005 16.402,48.863 C16.4393335,48.7649995 16.4626666,48.6926669 16.472,48.646 C16.4813334,48.5993331 16.486,48.4593345 16.486,48.226 C16.486,48.0579992 16.5303329,47.9296671 16.619,47.841 C16.7076671,47.7523329 16.849999,47.708 17.046,47.708 C17.2326676,47.708 17.4099992,47.7523329 17.578,47.841 C17.7460008,47.9296671 17.8439999,48.0439993 17.872,48.184 Z M15.73,48.058 C15.7486668,48.1513338 15.7393335,48.2539994 15.702,48.366 C15.6366663,48.5713344 15.6016667,48.6833332 15.597,48.702 C15.5923333,48.7206668 15.5853334,48.8373323 15.576,49.052 C15.5666666,49.1826673 15.5270003,49.2876663 15.457,49.367 C15.3869996,49.4463337 15.2446677,49.486 15.03,49.486 C14.8246656,49.486 14.6426675,49.4440004 14.484,49.36 C14.2973324,49.2666662 14.1993334,49.1406675 14.19,48.982 C14.1806666,48.907333 14.1946665,48.8280004 14.232,48.744 C14.2880003,48.6226661 14.3206666,48.5480001 14.33,48.52 C14.3393334,48.4733331 14.3393334,48.3286679 14.33,48.086 C14.33,47.9086658 14.3743329,47.7803337 14.463,47.701 C14.5516671,47.6216663 14.6893324,47.582 14.876,47.582 C15.072001,47.582 15.2563325,47.6263329 15.429,47.715 C15.6016675,47.8036671 15.7019999,47.9179993 15.73,48.058 Z M17.368,50.732 C17.9933365,51.3666698 18.306,52.4353258 18.306,53.938 C18.306,55.1046725 18.0866689,56.0986626 17.648,56.92 C17.1533309,57.8440046 16.4720043,58.306 15.604,58.306 C14.745329,58.306 14.082669,57.8906708 13.616,57.06 C13.2053313,56.3319964 13,55.4080056 13,54.288 C13,53.2986617 13.1586651,52.4120039 13.476,51.628 C13.8120017,50.7879958 14.2413307,50.2933341 14.764,50.144 C15.034668,50.069333 15.3146652,50.032 15.604,50.032 C16.3226703,50.032 16.9106644,50.265331 17.368,50.732 Z M15.772,51.404 C15.4639985,51.3759999 15.1980011,51.6653303 14.974,52.272 C14.777999,52.8226694 14.68,53.4013303 14.68,54.008 C14.68,54.8853377 14.717333,55.5059982 14.792,55.87 C14.9226673,56.5233366 15.1933313,56.8826663 15.604,56.948 C15.8653346,56.9853335 16.1079989,56.6260038 16.332,55.87 C16.5466677,55.1419964 16.654,54.3626708 16.654,53.532 C16.654,52.1693265 16.3600029,51.4600003 15.772,51.404 Z M28.241882,50.522 C28.2605488,51.3246707 28.3025483,52.6453241 28.367882,54.484 C28.4052155,55.7813398 28.423882,56.7099972 28.423882,57.27 C28.423882,58.5020062 28.325883,59.3419978 28.129882,59.79 C27.933881,60.2380022 27.5372183,60.4853331 26.939882,60.532 C26.1932116,60.5973337 25.5352182,60.4013356 24.965882,59.944 C24.6858806,59.8599996 24.508549,59.7946669 24.433882,59.748 C24.2752145,59.6546662 24.1725489,59.4960011 24.125882,59.272 C24.0418816,58.8333311 24.3872115,58.614 25.161882,58.614 C25.357883,58.614 25.5445478,58.6373331 25.721882,58.684 C25.8525493,58.7120001 25.9972145,58.8216657 26.155882,59.013 C26.3145495,59.2043343 26.4638813,59.3046666 26.603882,59.314 C26.87455,59.3326668 27.009882,58.9500039 27.009882,58.166 C27.009882,57.8299983 26.9865489,57.2840038 26.939882,56.528 C26.6038803,57.0973362 26.3612161,57.4659992 26.211882,57.634 C25.9038805,57.9513349 25.5445507,58.11 25.133882,58.11 C24.5552124,58.11 24.0885504,57.7086707 23.733882,56.906 C23.4072137,56.168663 23.243882,55.2726719 23.243882,54.218 C23.243882,53.1353279 23.4165469,52.2206704 23.761882,51.474 C24.153884,50.6339958 24.6952119,50.2046668 25.385882,50.186 C25.7592172,50.1766666 26.0345478,50.2513325 26.211882,50.41 C26.3892162,50.5686675 26.5618812,50.7319992 26.729882,50.9 C26.6085481,50.5639983 26.6365478,50.3120008 26.813882,50.144 C26.9165492,50.0413328 27.0705476,49.99 27.275882,49.99 C27.471883,49.99 27.667881,50.0413328 27.863882,50.144 C28.059883,50.2466672 28.1858817,50.3726659 28.241882,50.522 Z M26.561882,54.092 C26.5992155,53.550664 26.5338828,53.0373358 26.365882,52.552 C26.1792144,52.010664 25.9365502,51.74 25.637882,51.74 C25.3952141,51.74 25.1805496,52.010664 24.993882,52.552 C24.8258812,53.0373358 24.7325488,53.550664 24.713882,54.092 C24.6952152,54.6613362 24.7372148,55.1746644 24.839882,55.632 C24.9705493,56.173336 25.1525475,56.444 25.385882,56.444 C25.5912164,56.444 25.829214,56.180336 26.099882,55.653 C26.37055,55.125664 26.5245485,54.6053359 26.561882,54.092 Z M28.297882,46.896 C28.297882,47.0266673 28.2652157,47.1526661 28.199882,47.274 C27.733213,48.5340063 26.9865538,49.164 25.959882,49.164 C24.7932095,49.164 24.0045507,48.4360073 23.593882,46.98 C23.5752152,46.8959996 23.565882,46.8260003 23.565882,46.77 C23.565882,46.5553323 23.6405479,46.3733341 23.789882,46.224 C23.9392161,46.0746659 24.1212143,46 24.335882,46 C24.60655,46 24.8165479,46.1119989 24.965882,46.336 C25.0125489,46.4480006 25.0592151,46.5553328 25.105882,46.658 C25.2272159,47.3486701 25.5118798,47.7266663 25.959882,47.792 C26.2585502,47.8386669 26.5245475,47.5353366 26.757882,46.882 C26.7672154,46.6673323 26.8465479,46.4876674 26.995882,46.343 C27.1452161,46.1983326 27.3225476,46.126 27.527882,46.126 C27.7425497,46.126 27.9245479,46.2006659 28.073882,46.35 C28.2232161,46.4993341 28.297882,46.6813323 28.297882,46.896 Z M38.947764,50.816 C38.9104305,51.012001 38.7330989,51.147333 38.415764,51.222 C38.0424288,51.3153338 37.8044312,51.4226661 37.701764,51.544 L35.419764,54.176 L35.419764,56.304 C35.419764,56.5093344 35.4780967,56.716999 35.594764,56.927 C35.7114312,57.1370011 35.769764,57.2979994 35.769764,57.41 C35.769764,57.5220006 35.7370977,57.6479993 35.671764,57.788 C35.5130965,58.1426684 35.1910998,58.32 34.705764,58.32 C34.3697623,58.32 34.103765,58.2126677 33.907764,57.998 C33.7770967,57.8579993 33.711764,57.6806677 33.711764,57.466 C33.711764,57.391333 33.7210972,57.2700008 33.739764,57.102 C33.7584308,56.9339992 33.767764,56.7986672 33.767764,56.696 L33.767764,51.46 C33.767764,51.3759996 33.730431,51.2733339 33.655764,51.152 C33.581097,51.0306661 33.543764,50.932667 33.543764,50.858 C33.543764,50.8019997 33.5624305,50.736667 33.599764,50.662 C33.7210979,50.4379989 34.0990942,50.326 34.733764,50.326 C35.2284331,50.326 35.5084303,50.4426655 35.573764,50.676 C35.6017641,50.7693338 35.615764,50.8486663 35.615764,50.914 C35.615764,51.0166672 35.578431,51.0959997 35.503764,51.152 C35.429097,51.2080003 35.391764,51.2639997 35.391764,51.32 L35.419764,51.824 L36.623764,50.55 C36.7637647,50.3913325 36.9107632,50.2326675 37.064764,50.074 C37.2187648,49.9153325 37.3984296,49.8266668 37.603764,49.808 C37.9210989,49.7799999 38.2267625,49.8499992 38.520764,50.018 C38.8147655,50.1860008 38.961764,50.405332 38.961764,50.676 C38.961764,50.7226669 38.9570974,50.7693331 38.947764,50.816 Z M48.421646,56.486 C48.346979,56.8406684 48.0949815,57.2186647 47.665646,57.62 C47.6003123,57.7226672 47.3436482,57.8579992 46.895646,58.026 C46.3823101,58.222001 45.9389812,58.3060001 45.565646,58.278 C44.8656425,58.2313331 44.3149813,57.8300038 43.913646,57.074 C43.5496442,56.3739965 43.367646,55.5153384 43.367646,54.498 C43.367646,53.3966612 43.5729773,52.4306708 43.983646,51.6 C44.4409816,50.6853288 45.0523088,50.1720006 45.817646,50.06 C45.9669801,50.0413332 46.1116453,50.032 46.251646,50.032 C47.3623182,50.032 47.9736454,50.7133265 48.085646,52.076 C48.1416463,52.7013365 47.8943154,53.382663 47.343646,54.12 C46.7463097,54.9320041 45.980984,55.5013317 45.047646,55.828 C45.1503132,56.2013352 45.2296457,56.4439994 45.285646,56.556 C45.4163133,56.7893345 45.5936449,56.906 45.817646,56.906 C46.0323137,56.906 46.2609781,56.8220008 46.503646,56.654 C46.7089804,56.5139993 46.848979,56.3786673 46.923646,56.248 C46.9609795,56.2293332 46.9983125,56.1243343 47.035646,55.933 C47.0729795,55.7416657 47.1709785,55.6040004 47.329646,55.52 C47.3856463,55.4919999 47.450979,55.478 47.525646,55.478 C47.7496471,55.478 47.9666449,55.5876656 48.176646,55.807 C48.3866471,56.0263344 48.4683129,56.2526655 48.421646,56.486 Z M46.223646,51.558 C45.8503108,51.558 45.5469805,51.8239973 45.313646,52.356 C45.0056445,53.0653369 44.8796457,53.7653299 44.935646,54.456 C45.3743149,54.3159993 45.7803108,53.9893359 46.153646,53.476 C46.5269812,52.9626641 46.713646,52.5053353 46.713646,52.104 C46.713646,51.7399982 46.5503143,51.558 46.223646,51.558 Z M60.303528,57.06 C60.2848612,57.2653344 60.1495293,57.4403326 59.897528,57.585 C59.6455267,57.7296674 59.3655295,57.802 59.057528,57.802 C58.6001924,57.802 58.2875288,57.6573348 58.119528,57.368 C58.194195,54.493319 58.1101959,53.0373335 57.867528,53 C57.6341935,52.9626665 57.0648659,54.2506536 56.159528,56.864 L56.159528,57.704 C56.1501946,58.0400017 56.0591955,58.2779993 55.886528,58.418 C55.7138605,58.5580007 55.529529,58.628 55.333528,58.628 C54.9975263,58.628 54.6381966,58.4460018 54.255528,58.082 C54.1435274,57.9886662 54.0828614,57.27934 54.073528,55.954 C54.0828614,56.7660041 54.087528,55.2586858 54.087528,51.432 C54.087528,51.3479996 54.0781948,51.2336674 54.059528,51.089 C54.0408612,50.9443326 54.031528,50.8393337 54.031528,50.774 C54.031528,50.5966658 54.0781942,50.4426673 54.171528,50.312 C54.2835286,50.1439992 54.4608601,50.06 54.703528,50.06 C54.9555293,50.06 55.2191933,50.1369992 55.494528,50.291 C55.7698627,50.4450008 55.9355277,50.5919993 55.991528,50.732 C56.0288615,50.8253338 56.047528,50.9186662 56.047528,51.012 C56.047528,51.1053338 56.010195,51.2359992 55.935528,51.404 C55.860861,51.5720008 55.823528,51.7119994 55.823528,51.824 L55.823528,53.756 C56.4115309,52.5053271 56.8548598,51.6793353 57.153528,51.278 C57.6855307,50.5873299 58.2875246,50.2653331 58.959528,50.312 C59.3608633,50.3400001 59.6455272,50.7133297 59.813528,51.432 C59.9441953,51.973336 60.0141946,52.7759947 60.023528,53.84 L60.023528,56.36 C60.0421948,56.4253337 60.1075274,56.5419992 60.219528,56.71 C60.2848617,56.8033338 60.3128614,56.9199993 60.303528,57.06 Z M67.84541,47.456 C67.8734101,47.4840001 67.88741,47.5306663 67.88741,47.596 C67.88741,47.6800004 67.8594103,47.8246656 67.80341,48.03 C67.7380763,48.2820013 67.6960768,48.4546662 67.67741,48.548 C67.6587432,48.6413338 67.6680765,48.8466651 67.70541,49.164 C67.70541,49.360001 67.6470772,49.488333 67.53041,49.549 C67.4137427,49.609667 67.2667442,49.64 67.08941,49.64 C66.8374087,49.64 66.5807446,49.5886672 66.31941,49.486 C66.0020751,49.3553327 65.84341,49.1826677 65.84341,48.968 C65.84341,48.9026663 65.8714097,48.8116672 65.92741,48.695 C65.9834103,48.5783328 66.0160766,48.482667 66.02541,48.408 C66.0440768,48.333333 66.0440768,48.1466682 66.02541,47.848 C66.0067432,47.6146655 66.0534094,47.4560004 66.16541,47.372 C66.3147441,47.2599994 66.5807414,47.204 66.96341,47.204 C67.3834121,47.204 67.6774092,47.2879992 67.84541,47.456 Z M68.02741,50.872 C68.02741,51.0026673 67.9550774,51.2056653 67.81041,51.481 C67.6657426,51.7563347 67.59341,51.9826658 67.59341,52.16 L67.59341,56.276 C67.59341,56.4626676 67.6447428,56.7263316 67.74741,57.067 C67.8500772,57.4076684 67.90141,57.6433327 67.90141,57.774 C67.90141,57.9606676 67.8267441,58.1006662 67.67741,58.194 C67.4440755,58.3433341 67.192078,58.418 66.92141,58.418 C66.5667416,58.418 66.3147441,58.2966679 66.16541,58.054 C65.969409,57.7553318 65.87141,56.8640074 65.87141,55.38 C65.87141,55.0253316 65.8784099,54.4723371 65.89241,53.721 C65.9064101,52.9696629 65.91341,52.4213351 65.91341,52.076 C65.91341,51.9453327 65.8994101,51.7750011 65.87141,51.565 C65.8434099,51.354999 65.82941,51.2033338 65.82941,51.11 C65.82941,50.8019985 65.9414089,50.5360011 66.16541,50.312 C66.2587438,50.2186662 66.4314087,50.172 66.68341,50.172 C66.9354113,50.172 67.1874087,50.2116663 67.43941,50.291 C67.6914113,50.3703337 67.8524096,50.4613328 67.92241,50.564 C67.9924103,50.6666672 68.02741,50.7693328 68.02741,50.872 Z M80.175292,50.984 C80.2032921,51.1706676 80.1566259,51.3713323 80.035292,51.586 C79.8206243,51.9406684 79.7086254,52.1319999 79.699292,52.16 C79.30729,53.093338 78.7006294,54.5959896 77.879292,56.668 C77.5059568,57.6573383 77.2726258,58.5486627 77.179292,59.342 C77.1606252,59.416667 77.1559586,59.5799987 77.165292,59.832 C77.1746254,60.0373344 77.141959,60.1913328 77.067292,60.294 C76.9179579,60.490001 76.6939602,60.588 76.395292,60.588 C75.8632893,60.588 75.5179595,60.3873353 75.359292,59.986 C75.3219585,59.8833328 75.303292,59.794667 75.303292,59.72 C75.303292,59.6266662 75.340625,59.5216673 75.415292,59.405 C75.489959,59.2883328 75.5366252,59.192667 75.555292,59.118 L75.891292,57.368 L73.875292,51.572 C73.8472919,51.497333 73.7726259,51.3433345 73.651292,51.11 C73.5672916,50.9419992 73.525292,50.7973339 73.525292,50.676 C73.525292,50.6106663 73.5346252,50.5453337 73.553292,50.48 C73.6466258,50.1439983 73.963956,49.976 74.505292,49.976 C74.8412937,49.976 75.107291,50.0319994 75.303292,50.144 C75.5366265,50.2840007 75.6719585,50.5313316 75.709292,50.886 C75.7559589,51.4646696 75.7886252,51.7866663 75.807292,51.852 L76.731292,54.764 L78.159292,51.152 C78.1686254,51.1239999 78.210625,50.9186686 78.285292,50.536 C78.3319589,50.3026655 78.4299579,50.1440004 78.579292,50.06 C78.6726258,50.0039997 78.7799581,49.976 78.901292,49.976 C79.17196,49.976 79.442624,50.0763323 79.713292,50.277 C79.98396,50.4776677 80.1379585,50.713332 80.175292,50.984 Z M89.565174,50.732 C90.1905105,51.3666698 90.503174,52.4353258 90.503174,53.938 C90.503174,55.1046725 90.2838429,56.0986626 89.845174,56.92 C89.3505049,57.8440046 88.6691783,58.306 87.801174,58.306 C86.942503,58.306 86.279843,57.8906708 85.813174,57.06 C85.4025053,56.3319964 85.197174,55.4080056 85.197174,54.288 C85.197174,53.2986617 85.3558391,52.4120039 85.673174,51.628 C86.0091757,50.7879958 86.4385047,50.2933341 86.961174,50.144 C87.231842,50.069333 87.5118392,50.032 87.801174,50.032 C88.5198443,50.032 89.1078384,50.265331 89.565174,50.732 Z M87.969174,51.404 C87.6611725,51.3759999 87.3951751,51.6653303 87.171174,52.272 C86.975173,52.8226694 86.877174,53.4013303 86.877174,54.008 C86.877174,54.8853377 86.914507,55.5059982 86.989174,55.87 C87.1198413,56.5233366 87.3905053,56.8826663 87.801174,56.948 C88.0625086,56.9853335 88.3051729,56.6260038 88.529174,55.87 C88.7438417,55.1419964 88.851174,54.3626708 88.851174,53.532 C88.851174,52.1693265 88.5571769,51.4600003 87.969174,51.404 Z M101.349056,50.816 C101.311722,51.012001 101.134391,51.147333 100.817056,51.222 C100.443721,51.3153338 100.205723,51.4226661 100.103056,51.544 L97.821056,54.176 L97.821056,56.304 C97.821056,56.5093344 97.8793888,56.716999 97.996056,56.927 C98.1127233,57.1370011 98.171056,57.2979994 98.171056,57.41 C98.171056,57.5220006 98.1383897,57.6479993 98.073056,57.788 C97.9143885,58.1426684 97.5923918,58.32 97.107056,58.32 C96.7710543,58.32 96.505057,58.2126677 96.309056,57.998 C96.1783887,57.8579993 96.113056,57.6806677 96.113056,57.466 C96.113056,57.391333 96.1223892,57.2700008 96.141056,57.102 C96.1597228,56.9339992 96.169056,56.7986672 96.169056,56.696 L96.169056,51.46 C96.169056,51.3759996 96.131723,51.2733339 96.057056,51.152 C95.982389,51.0306661 95.945056,50.932667 95.945056,50.858 C95.945056,50.8019997 95.9637225,50.736667 96.001056,50.662 C96.1223899,50.4379989 96.5003862,50.326 97.135056,50.326 C97.6297251,50.326 97.9097223,50.4426655 97.975056,50.676 C98.0030561,50.7693338 98.017056,50.8486663 98.017056,50.914 C98.017056,51.0166672 97.979723,51.0959997 97.905056,51.152 C97.830389,51.2080003 97.793056,51.2639997 97.793056,51.32 L97.821056,51.824 L99.025056,50.55 C99.1650567,50.3913325 99.3120552,50.2326675 99.466056,50.074 C99.6200568,49.9153325 99.7997216,49.8266668 100.005056,49.808 C100.322391,49.7799999 100.628055,49.8499992 100.922056,50.018 C101.216057,50.1860008 101.363056,50.405332 101.363056,50.676 C101.363056,50.7226669 101.358389,50.7693331 101.349056,50.816 Z M111.704938,51.124 C111.723605,51.2640007 111.695605,51.4133325 111.620938,51.572 C111.527604,51.7866677 111.471605,51.9453328 111.452938,52.048 C111.452938,53.989343 111.373605,55.3379962 111.214938,56.094 C110.869603,57.6806746 110.136944,58.474 109.016938,58.474 C107.383596,58.474 106.566938,56.9853482 106.566938,54.008 C106.566938,53.2053293 106.627604,52.3560045 106.748938,51.46 C106.683604,51.2453323 106.650938,51.0540008 106.650938,50.886 C106.650938,50.615332 106.739604,50.3866676 106.916938,50.2 C107.066272,50.0413325 107.285603,49.962 107.574938,49.962 C107.808272,49.962 108.027604,50.0109995 108.232938,50.109 C108.438272,50.2070005 108.559604,50.3213327 108.596938,50.452 C108.615605,50.5173337 108.624938,50.5826663 108.624938,50.648 C108.624938,50.7693339 108.573605,50.9629987 108.470938,51.229 C108.368271,51.4950013 108.326271,51.7119992 108.344938,51.88 C108.251604,52.4026693 108.204938,53.0606627 108.204938,53.854 C108.204938,54.6566707 108.256271,55.3239973 108.358938,55.856 C108.489605,56.4720031 108.671604,56.78 108.904938,56.78 C109.29694,56.78 109.553604,56.11734 109.674938,54.792 C109.740272,54.12933 109.772938,53.0746739 109.772938,51.628 C109.772938,51.5346662 109.758938,51.3993342 109.730938,51.222 C109.702938,51.0446658 109.688938,50.9140004 109.688938,50.83 C109.688938,50.6059989 109.772937,50.4520004 109.940938,50.368 C110.034272,50.3213331 110.164937,50.298 110.332938,50.298 C110.64094,50.298 110.925603,50.3633327 111.186938,50.494 C111.49494,50.6526675 111.667604,50.8626654 111.704938,51.124 Z M120.744755,53.5152738 C120.744798,53.5143872 120.74482,53.5152959 120.74482,53.518 C120.744798,53.5170902 120.744777,53.5161815 120.744755,53.5152738 Z M120.744755,53.5152738 C120.735357,53.1250677 120.707379,52.9253117 120.66082,52.916 C120.446152,53.2706684 120.259487,53.6113317 120.10082,53.938 C119.718151,54.7220039 119.49882,55.3753307 119.44282,55.898 C119.396153,56.0100006 119.391486,56.2293317 119.42882,56.556 C119.466154,56.8360014 119.424154,57.0273328 119.30282,57.13 C119.181486,57.2326672 119.018154,57.284 118.81282,57.284 C118.588819,57.284 118.362488,57.2210006 118.13382,57.095 C117.905152,56.9689994 117.739487,56.8266675 117.63682,56.668 C117.487486,56.4346655 117.403487,55.753339 117.38482,54.624 L117.38482,51.32 C117.375487,51.2266662 117.338154,51.0960008 117.27282,50.928 C117.207486,50.7599992 117.17482,50.6340004 117.17482,50.55 C117.17482,50.4659996 117.198153,50.386667 117.24482,50.312 C117.366154,50.1253324 117.674151,50.032 118.16882,50.032 C118.77549,50.032 119.139486,50.1813318 119.26082,50.48 C119.28882,50.5453337 119.30282,50.6106663 119.30282,50.676 C119.30282,50.7600004 119.258487,50.8813325 119.16982,51.04 C119.081153,51.1986675 119.03682,51.3293328 119.03682,51.432 L119.03682,53.028 C119.316821,52.4399971 119.685484,51.6933379 120.14282,50.788 C120.19882,50.6666661 120.252486,50.5453339 120.30382,50.424 C120.355154,50.3026661 120.432153,50.1953338 120.53482,50.102 C120.637487,50.0086662 120.810152,49.962 121.05282,49.962 C121.426155,49.962 121.801818,50.0459992 122.17982,50.214 C122.557822,50.3820008 122.751487,50.5826655 122.76082,50.816 C122.770153,51.0586679 122.735154,51.2429994 122.65582,51.369 C122.576486,51.4950006 122.53682,51.5999996 122.53682,51.684 L122.50882,54.708 C122.658154,54.3719983 122.928818,53.5786729 123.32082,52.328 C123.628822,51.3759952 123.862153,50.8440006 124.02082,50.732 C124.226154,50.5826659 124.529485,50.508 124.93082,50.508 C125.67749,50.508 126.06482,50.7226645 126.09282,51.152 C126.083487,52.2906724 126.083487,54.1946533 126.09282,56.864 C126.09282,56.9666672 126.186152,57.0903326 126.37282,57.235 C126.559488,57.3796674 126.65282,57.5313325 126.65282,57.69 C126.65282,57.764667 126.634154,57.8533328 126.59682,57.956 C126.475486,58.3013351 126.200155,58.474 125.77082,58.474 C125.229484,58.474 124.828155,58.2873352 124.56682,57.914 C124.426819,57.7086656 124.35682,57.004006 124.35682,55.8 L124.35682,55.058 C124.366153,54.7313317 124.37082,54.5026673 124.37082,54.372 C124.37082,53.7186634 124.338154,53.3826668 124.27282,53.364 C124.132819,53.3079997 123.656824,54.6146533 122.84482,57.284 C122.84482,57.2933334 122.826154,57.5173311 122.78882,57.956 C122.770153,58.226668 122.676821,58.4086662 122.50882,58.502 C122.387486,58.5673337 122.252154,58.6 122.10282,58.6 C121.832152,58.6 121.570821,58.5113342 121.31882,58.334 C121.066819,58.1566658 120.908154,57.9466679 120.84282,57.704 C120.749486,57.3586649 120.707487,56.6773384 120.71682,55.66 C120.734585,54.2476509 120.743897,53.5327484 120.744755,53.5152738 Z" id="öğreniyorum" fill="#FFFFFF"></path>
                </g>
            </g>
        </g>
    </g>
</svg>