<svg xmlns="http://www.w3.org/2000/svg" xmlns:xlink="http://www.w3.org/1999/xlink" width="50" height="50" viewBox="0 0 50 50"><defs><path id="uabna" d="M1151 51c0-13.807 11.193-25 25-25s25 11.193 25 25-11.193 25-25 25-25-11.193-25-25z"/><path id="uabnc" d="M1184.52 66.725h-.005a13.986 13.986 0 0 0-1.7-1.1c-.016-.01-.03-.02-.051-.025a9.127 9.127 0 0 1-4.724-8l-4.265-.02a9.127 9.127 0 0 1-4.764 8.02s-.005 0-.01.005c-.601.328-1.176.696-1.722 1.1a14.397 14.397 0 0 0-5.819 11.578h28.854c0-4.734-2.275-8.928-5.793-11.558z"/><path id="uabnd" d="M1190.315 78.287h-28.855c0-4.745 2.286-8.949 5.82-11.578.545-.404 1.12-.773 1.72-1.1.006-.006.01-.006.01-.006.465-.257.909-.55 1.318-.883a7.758 7.758 0 0 0 5.572 2.347c2.18 0 4.149-.898 5.562-2.342.404.333.843.626 1.302.878a13.986 13.986 0 0 1 1.751 1.125h.006a14.393 14.393 0 0 1 5.794 11.559z"/><path id="uabne" d="M1164.81 36.08v11.332c0 7.666 6.73 13.88 11.074 13.88 4.343 0 11.073-6.214 11.073-13.88V36.08z"/><path id="uabnf" d="M1185.153 33.994c-2.414-3.022-6.078-4.954-10.176-4.954-7.28 0-13.177 6.077-13.177 13.572 0 3.977 1.658 7.554 4.305 10.035a15.287 15.287 0 0 1-1.063-5.656c0-3.256.99-6.238 2.634-8.531 1.745.775 4.573 1.056 7.675.628 3.076-.42 5.696-1.437 7.174-2.647 2.694 2.38 4.446 6.218 4.446 10.55 0 2.22-.455 4.305-1.27 6.137 2.6-1.077 4.512-4.914 4.512-9.48 0-4.887-2.193-8.919-5.06-9.654z"/><clipPath id="uabnb"><use xlink:href="#uabna"/></clipPath></defs><g><g transform="translate(-1151 -26)"><use fill="#fff" xlink:href="#uabna"/></g><g clip-path="url(#uabnb)" transform="translate(-1151 -26)"><g><use fill="#ecc19c" xlink:href="#uabnc"/></g><g><use fill="#168ef7" xlink:href="#uabnd"/></g><g><use fill="#ecc19c" xlink:href="#uabne"/></g><g><use fill="#494846" xlink:href="#uabnf"/></g></g></g></svg>